<svg width="64" height="64" viewBox="0 0 64 64" fill="none" xmlns="http://www.w3.org/2000/svg">
<g clip-path="url(#clip0)">
<rect width="64" height="64" fill="white"/>
<rect width="256" height="256" fill="black"/>
<path d="M16 13.72C16 13.52 16.0576 13.36 16.1729 13.24C16.3266 13.08 16.4994 13 16.6915 13H41.7021C42.4705 13 43.1044 13.32 43.6038 13.96L47.8683 19.78C48.022 19.98 48.0412 20.18 47.9259 20.38C47.8491 20.54 47.6954 20.62 47.4649 20.62H34.6138V54.28C34.6138 54.76 34.3833 55 33.9223 55H27.9866C27.5256 55 27.2951 54.76 27.2951 54.28V20.62H16.6915C16.4994 20.62 16.3266 20.56 16.1729 20.44C16.0576 20.28 16 20.1 16 19.9V13.72Z" fill="white"/>
</g>
<defs>
<clipPath id="clip0">
<rect width="64" height="64" fill="white"/>
</clipPath>
</defs>
</svg>
