<svg width="64" height="64" viewBox="0 0 256 256" fill="none" xmlns="http://www.w3.org/2000/svg">
<rect width="64" height="64" fill="black"/>
<path fill="#fff" d="M61.5 48.5C61.5 47.6667 61.75 47 62.25 46.5C62.9167 45.8333 63.6667 45.5 64.5 45.5H173C176.333 45.5 179.083 46.8333 181.25 49.5L199.75 73.75C200.417 74.5833 200.5 75.4167 200 76.25C199.667 76.9167 199 77.25 198 77.25H142.25V217.5C142.25 219.5 141.25 220.5 139.25 220.5H113.5C111.5 220.5 110.5 219.5 110.5 217.5V77.25H64.5C63.6667 77.25 62.9167 77 62.25 76.5C61.75 75.8333 61.5 75.0833 61.5 74.25V48.5Z"/>
</svg>
