<svg width="140" height="176" viewBox="0 0 140 176" fill="#fff" xmlns="http://www.w3.org/2000/svg">
<path d="M0.500001 3.49999C0.500001 2.66665 0.750001 1.99999 1.25 1.5C1.91667 0.833329 2.66667 0.499995 3.5 0.499995H112C115.333 0.499995 118.083 1.83333 120.25 4.49999L138.75 28.75C139.417 29.5833 139.5 30.4167 139 31.25C138.667 31.9167 138 32.25 137 32.25H81.25V172.5C81.25 174.5 80.25 175.5 78.25 175.5H52.5C50.5 175.5 49.5 174.5 49.5 172.5V32.25H3.5C2.66667 32.25 1.91667 32 1.25 31.5C0.750001 30.8333 0.500001 30.0833 0.500001 29.25V3.49999Z" fill="white"/>
</svg>
